<svg xmlns="http://www.w3.org/2000/svg" viewBox="0 0 297.03 71.82"><defs><style>.cls-1{fill:none;}</style></defs><title>FINAL Station Logo Minified</title><g id="Stripes"><g id="Stripe-U"><path d="M237.7,62a20.1,20.1,0,0,0,1.38,1.59l3.08-5.24a20.79,20.79,0,0,1-1.28-1.77Z"/><path d="M233.67,53.16a25.51,25.51,0,0,0,.73,2.68l3.53-6a29.81,29.81,0,0,1-.59-2.93Z"/><path d="M235.34,58.17a21.6,21.6,0,0,0,1.11,2l3.29-5.6a22.88,22.88,0,0,1-1-2.24Z"/><polygon points="274.05 31.61 274.05 35.54 278.03 28.75 278.03 24.82 274.05 31.61"/><polygon points="274.05 39.47 274.05 43.4 278.03 36.61 278.03 32.68 274.05 39.47"/><polygon points="233.05 30.64 233.05 34.57 237.03 27.78 237.03 23.85 233.05 30.64"/><path d="M235,4.57a2.43,2.43,0,0,0-.6.1l-1.39,2.39V11l3.76-6.42Z"/><polygon points="233.05 14.92 233.05 18.85 237.03 12.06 237.03 8.13 233.05 14.92"/><path d="M237,42.53v-3l-4,6.79V47c0,.07,0,.15,0,.23,0,.87,0,1.81.13,2.8l3.87-6.58c0-.24,0-.47,0-.7S237,42.6,237,42.53Z"/><polygon points="274.05 23.75 274.05 27.68 278.03 20.89 278.03 16.96 274.05 23.75"/><polygon points="233.05 22.78 233.05 26.71 237.03 19.92 237.03 15.99 233.05 22.78"/><polygon points="233.05 38.5 233.05 42.43 237.03 35.64 237.03 31.71 233.05 38.5"/><path d="M251.34,70.25c.66.16,1.34.32,2,.45l2.4-4.07c-.68-.18-1.34-.37-2-.58Z"/><path d="M267.83,68.09c-.46,0-.9,0-1.35,0l-2.06,3.51c.81,0,1.6,0,2.37-.1l2-3.38h-.94Z"/><path d="M269.22,71.27c.86-.1,1.71-.21,2.51-.35l1.8-3.07c-.78.08-1.59.13-2.41.17Z"/><polygon points="274.05 15.88 274.05 19.82 278.03 13.03 278.03 9.1 274.05 15.88"/><path d="M259.85,71.48c.73,0,1.49.07,2.26.09L264.24,68c-.76,0-1.49-.11-2.2-.19Z"/><path d="M278,42.37V40.54l-4,6.84a9.09,9.09,0,0,1-.36,1.9A7.72,7.72,0,0,0,278,42.37Z"/><path d="M280.23,68.24A22.53,22.53,0,0,0,283.87,66l.41-.69a29.14,29.14,0,0,1-2.94,1.06Z"/><path d="M274.37,70.36c1-.25,1.92-.52,2.79-.82l1.45-2.47c-.84.19-1.7.34-2.59.47Z"/><path d="M255.48,71.06c.7.1,1.42.18,2.16.26l2.25-3.84c-.71-.11-1.41-.24-2.08-.38Z"/><polygon points="276.07 4.58 274.05 8.02 274.05 11.95 278.03 5.17 278.03 4.58 276.07 4.58"/><path d="M243.55,59.93l-3,5.07c.49.42,1,.83,1.58,1.23L245,61.31C244.51,60.86,244,60.4,243.55,59.93Z"/><path d="M243.84,67.29c.56.33,1.14.64,1.76.94l2.71-4.61c-.59-.35-1.14-.71-1.68-1.09Z"/><path d="M247.44,69c.61.24,1.25.46,1.92.67l2.54-4.33c-.63-.26-1.25-.53-1.83-.81Z"/></g><g id="Stripe-B"><path class="cls-1" d="M208.52,45.66l-2.33,4A4.38,4.38,0,0,0,208.52,45.66Z"/><path class="cls-1" d="M206.23,21.2a4.2,4.2,0,0,0-.67-2.42l-3.41,5.9a4.69,4.69,0,0,0-1-2.25l2.86-5-.25-.11a.9.9,0,0,0-.34-.06H201.8l-2.24,3.87a3.59,3.59,0,0,0-.43-.19,1.87,1.87,0,0,0-.69-.13h-1l2.05-3.55h-2.31l-2.05,3.55h-2.31l2.05-3.55h-2.31l-.53.91V25.1h11.39a.9.9,0,0,0,.34-.06,4.43,4.43,0,0,0,.7-.34l1.74-3C206.21,21.52,206.23,21.37,206.23,21.2Z"/><path class="cls-1" d="M204.43,48.74l3.42-5.91a4.24,4.24,0,0,0-1.49-1.43l-2.92,5.06a5.39,5.39,0,0,0-1.53-1.36l2.37-4.1H202l-2.05,3.55h-2.31l2-3.55h-2.31l-2,3.55H193L195,41h-2.31l-.3.52V50h12.11A7.12,7.12,0,0,0,204.43,48.74Z"/><polygon points="168.65 46.72 168.65 50.72 172.63 43.82 172.63 39.82 168.65 46.72"/><polygon points="168.65 30.72 168.65 34.72 172.63 27.82 172.63 23.82 168.65 30.72"/><polygon points="168.65 22.72 168.65 26.72 172.63 19.82 172.63 15.82 168.65 22.72"/><path d="M206.2,21.68l-1.74,3A3.76,3.76,0,0,0,206.2,21.68Z"/><polygon points="195.3 44.55 197.35 41 195.04 41 192.99 44.55 195.3 44.55"/><polygon points="199.92 44.55 201.97 41 199.66 41 197.61 44.55 199.92 44.55"/><path d="M203.44,46.46l2.92-5.06a4.56,4.56,0,0,0-.71-.35,1,1,0,0,0-.32,0h-1.05l-2.37,4.1A5.39,5.39,0,0,1,203.44,46.46Z"/><polygon points="168.65 38.72 168.65 42.72 172.63 35.82 172.63 31.82 168.65 38.72"/><path d="M172.63,63.82l-3.79,6.57a2,2,0,0,0,1.64,1.15l2.75-4.76a3,3,0,0,1-.6-1.78Z"/><path d="M204.54,50h.79a1,1,0,0,0,.32,0,4.81,4.81,0,0,0,.54-.25l2.33-4c0-.06,0-.1,0-.16a5,5,0,0,0-.68-2.67l-3.42,5.91A7.12,7.12,0,0,1,204.54,50Z"/><path d="M191.28,71.51h2.31L195.65,68h-2.31Z"/><path d="M205.12,71.55h.33c.61,0,1.27,0,2,0L209.48,68h-2.3Z"/><polygon points="168.65 14.72 168.65 18.72 172.63 11.82 172.63 7.82 168.65 14.72"/><polygon points="192.43 41 192.43 41.52 192.73 41 192.43 41"/><path d="M170.64,4.65a2,2,0,0,0-.94.25l-1,1.82v4l3.5-6.07Z"/><path d="M195.9,71.51h2.31l2-3.56H198Z"/><path d="M186.66,71.51H189L191,68h-2.31Z"/><path d="M182,71.52h2.31L186.4,68h-2.31Z"/><path d="M177.42,71.53h2.31L181.78,68h-2.32Z"/><path d="M200.52,71.52h2.3L204.88,68h-2.31Z"/><path d="M215.08,70.3a11.46,11.46,0,0,0,3.73-2.46l.42-.72a18.47,18.47,0,0,1-2.66.6Z"/><path d="M211.78,68l-2,3.46a22.2,22.2,0,0,0,2.51-.34L214.12,68c-.75,0-1.47.05-2.15.05Z"/><polygon points="195.13 20.85 197.18 17.3 194.87 17.3 192.82 20.85 195.13 20.85"/><polygon points="192.03 17.3 192.03 18.21 192.56 17.3 192.03 17.3"/><path d="M202.15,24.68l3.41-5.9A3.69,3.69,0,0,0,204,17.47l-2.86,5A4.69,4.69,0,0,1,202.15,24.68Z"/><path d="M198.44,20.85a1.87,1.87,0,0,1,.69.13,3.59,3.59,0,0,1,.43.19l2.24-3.87h-2.31l-2.05,3.55Z"/><path d="M174.9,67.9l-2.11,3.65h2.31L177.15,68h-1.51A2.94,2.94,0,0,1,174.9,67.9Z"/><polygon points="168.65 62.72 168.65 66.72 172.63 59.82 172.63 55.82 168.65 62.72"/><polygon points="168.65 54.72 168.65 58.72 172.63 51.82 172.63 47.82 168.65 54.72"/></g><g id="Stripe-T"><polygon class="cls-1" points="148.33 17.1 148.33 17.9 148.8 17.1 148.33 17.1"/><path d="M112.25,16.39l-2.28,4h2.31l2-3.55h-.6A2.89,2.89,0,0,1,112.25,16.39Z"/><polygon points="114.59 20.35 116.9 20.35 118.95 16.8 116.64 16.8 114.59 20.35"/><polygon points="125.15 26.07 125.15 30.07 129.13 23.16 129.13 19.16 125.15 26.07"/><polygon points="109.8 4.65 106.75 9.94 106.75 13.94 110.73 7.03 110.73 4.65 109.8 4.65"/><polygon points="119.21 20.35 121.52 20.35 123.57 16.8 121.26 16.8 119.21 20.35"/><path d="M125.15,66.07v3.69a2.28,2.28,0,0,0,0,.26l4-6.86v-4Z"/><path d="M129.48,66.56l-2.94,5.09a2,2,0,0,0,.6.1h1.65L131,68A3,3,0,0,1,129.48,66.56Z"/><path d="M110.73,11l-4,6.91v.42a2,2,0,0,0,1,1.75l3.1-5.37a3,3,0,0,1-.17-.94Z"/><path d="M123.83,20.35h.82a.51.51,0,0,1,.5.5v1.22l3-5.27h-2.31Z"/><polygon points="148.33 17.9 148.33 20.65 149.06 20.65 151.11 17.1 148.8 17.1 148.33 17.9"/><polygon points="131.1 71.75 133.41 71.75 135.46 68.2 133.15 68.2 131.1 71.75"/><polygon points="125.15 58.07 125.15 62.07 129.13 55.16 129.13 51.16 125.15 58.07"/><polygon points="135.72 71.75 138.03 71.75 140.08 68.2 137.77 68.2 135.72 71.75"/><path d="M156,20.65h1.57a1.91,1.91,0,0,0,.86-.2l1.14-2V17.1H158Z"/><path d="M140.35,71.75a2,2,0,0,0,2-2V68.28l-2,3.47Z"/><polygon points="125.15 42.07 125.15 46.07 129.13 39.16 129.13 35.16 125.15 42.07"/><polygon points="125.15 50.07 125.15 54.07 129.13 47.16 129.13 43.16 125.15 50.07"/><polygon points="151.37 20.65 153.67 20.65 155.73 17.1 153.42 17.1 151.37 20.65"/><polygon points="125.15 34.07 125.15 38.07 129.13 31.16 129.13 27.16 125.15 34.07"/></g><g id="Stripe-W"><polygon class="cls-1" points="36.41 32.01 36.62 31.39 36.36 31.86 36.41 32.01"/><polygon class="cls-1" points="75.73 31.65 76.41 30.48 80.32 19.71 74.87 29.15 75.73 31.65"/><polygon points="6.21 24.07 7.1 26.52 10.53 20.59 9.64 18.13 6.21 24.07"/><polygon points="7.99 28.98 8.88 31.44 12.31 25.51 11.42 23.05 7.99 28.98"/><polygon points="9.77 33.9 10.66 36.36 14.09 30.42 13.2 27.97 9.77 33.9"/><polygon points="13.33 43.73 14.22 46.19 17.65 40.26 16.76 37.8 13.33 43.73"/><polygon points="16.89 53.56 17.79 56.02 21.21 50.09 20.32 47.63 16.89 53.56"/><polygon points="45.19 4.55 41.09 11.65 37.65 21.62 43.52 11.46 45.9 4.55 45.19 4.55"/><polygon points="15.11 48.65 16 51.11 19.43 45.17 18.54 42.72 15.11 48.65"/><polygon points="2.65 14.23 3.54 16.69 6.97 10.76 6.08 8.3 2.65 14.23"/><path d="M66.13,64.29l-3.44,6,.08.25a2,2,0,0,0,1.36,1.25l2.9-5a1.92,1.92,0,0,1-.21-.46Z"/><path d="M75.71,71.69l1.76,0a1.68,1.68,0,0,0,.63-.12l2-3.4-2.33,0Z"/><path d="M22.24,68.31l.74,2a1.63,1.63,0,0,0,.19.34l3.38-5.86-.89-2.46Z"/><polygon points="4.43 19.15 5.32 21.61 8.75 15.68 7.86 13.22 4.43 19.15"/><polygon points="36.62 31.39 40.07 21.43 35.47 29.4 36.36 31.86 36.62 31.39"/><polygon points="18.68 58.48 19.57 60.94 22.99 55.01 22.1 52.55 18.68 58.48"/><polygon points="3.62 4.55 0.87 9.32 1.76 11.78 5.19 5.84 4.72 4.55 3.62 4.55"/><path d="M0,6.8,1.21,4.72A2,2,0,0,0,0,6.8Z"/><polygon points="11.55 38.81 12.44 41.27 15.87 35.34 14.98 32.88 11.55 38.81"/><polygon points="75.86 32.01 76.41 30.48 75.73 31.65 75.86 32.01"/><polygon points="59.22 60.26 60.08 62.76 63.52 56.8 62.66 54.3 59.22 60.26"/><polygon points="57.48 55.27 58.35 57.77 61.79 51.81 60.92 49.31 57.48 55.27"/><path d="M83.07,5.87l-1,2.9L84.4,4.64A2,2,0,0,0,83.07,5.87Z"/><polygon points="71.06 71.75 73.38 71.72 75.41 68.21 73.08 68.24 71.06 71.75"/><polygon points="80.32 19.71 84.22 8.95 78.11 19.54 74.75 28.8 74.87 29.15 80.32 19.71"/><polygon points="60.95 65.25 61.82 67.75 65.26 61.79 64.39 59.3 60.95 65.25"/><path d="M68.56,68.07,66.4,71.81l2.33,0,2-3.51H69.68A3,3,0,0,1,68.56,68.07Z"/><polygon points="55.74 50.28 56.61 52.77 60.05 46.81 59.18 44.32 55.74 50.28"/><polygon points="29.5 71.73 31.79 71.76 33.87 68.17 31.57 68.14 29.5 71.73"/><polygon points="54.34 40.71 56.58 36.83 56.13 35.55 54.34 40.71"/><path d="M27.57,67.07l-2.66,4.6,2.3,0,2.1-3.63A3.11,3.11,0,0,1,27.57,67.07Z"/><path d="M39.52,70.5l.1-.3-.6,1A2,2,0,0,0,39.52,70.5Z"/><polygon points="54.01 45.28 54.88 47.78 58.31 41.82 57.45 39.32 54.01 45.28"/><polygon points="34.08 71.79 36.38 71.82 38.45 68.23 36.16 68.2 34.08 71.79"/><polygon points="20.45 63.4 21.34 65.86 24.77 59.92 23.88 57.46 20.45 63.4"/></g></g><g id="Logo"><g id="WTBU"><path id="U" d="M238,2.06V42.53c0,.08,0,.15,0,.23,0,8.59,3.6,24.16,29.78,24.35C294.3,67.3,297,50.89,297,42.73V2.06a2,2,0,0,0-2-2H281a2,2,0,0,0-2,2V42.37c0,.19,0-.19,0,0,0,4.2-3.16,9.12-11.2,9.12s-11.33-4.08-11.4-9.14h0V2.06a2,2,0,0,0-2-2H240A2,2,0,0,0,238,2.06Z"/><path id="B" d="M173.63,2.1V65a2,2,0,0,0,2,2s26.1-.1,34.8,0c6.16.07,17.6.4,17.6-17.2s-9.58-17.6-9.6-17.6,7.8-2.9,7.8-16.4C226.23,3.1,214.86.1,209.8.13l-.31,0H175.63A2,2,0,0,0,173.63,2.1Zm17.9,14.2h11.89a2,2,0,0,1,.69.12,4.81,4.81,0,0,1,3.12,4.78A4.81,4.81,0,0,1,204.11,26a2,2,0,0,1-.69.12H191.53a.5.5,0,0,1-.5-.5V16.8A.5.5,0,0,1,191.53,16.3Zm.4,23.7h13.4a2.19,2.19,0,0,1,.67.11,5.42,5.42,0,0,1,3.53,5.39A5.42,5.42,0,0,1,206,50.89a2.19,2.19,0,0,1-.67.11h-13.4a.5.5,0,0,1-.5-.5v-10A.5.5,0,0,1,191.93,40Z"/><path id="T" d="M111.73,2.1V13.8a2,2,0,0,0,2,2h15.9a.5.5,0,0,1,.5.5V65.2a2,2,0,0,0,2,2h13.2a2,2,0,0,0,2-2V16.6a.5.5,0,0,1,.5-.5h14.7a2,2,0,0,0,2-2V2.1a2,2,0,0,0-2-2h-48.8A2,2,0,0,0,111.73,2.1Z"/><path id="W" d="M62.31,0A2,2,0,0,1,64.2,1.34L75.37,33.67a.5.5,0,0,0,.95,0L88.06,1.31A2,2,0,0,1,89.93,0h15.36a2,2,0,0,1,1.88,2.67L84.3,65.8a2,2,0,0,1-1.85,1.32l-12.78.16a2,2,0,0,1-1.91-1.34L56.61,33.86a.5.5,0,0,0-1,0L44.51,65.94a2,2,0,0,1-1.91,1.34l-12.79-.16A2,2,0,0,1,28,65.8L5.1,2.67A2,2,0,0,1,7,0H22.34a2,2,0,0,1,1.87,1.31L36,33.67a.5.5,0,0,0,.94,0L48.07,1.34A2,2,0,0,1,50,0Z"/></g></g></svg>