<?xml version="1.0" encoding="utf-8"?>
<!-- Generator: Adobe Illustrator 23.0.6, SVG Export Plug-In . SVG Version: 6.00 Build 0)  -->
<svg version="1.1" xmlns="http://www.w3.org/2000/svg" xmlns:xlink="http://www.w3.org/1999/xlink" x="0px" y="0px"
	 viewBox="0 0 341 100" style="enable-background:new 0 0 341 100;" xml:space="preserve">
<style type="text/css">
	.st0{stroke:#FFFFFF;}
	.st1{stroke:#FFFFFF;stroke-linejoin:round;}
</style>
<g id="Stripes">
	<g>
		<path d="M268.1,57.1v-4l-13.7,23.8c0.4,0.6,0.9,1.1,1.4,1.6L268.1,57.1z"/>
		<path d="M268.1,41.1v-4l-17.8,30.8c0.2,0.9,0.4,1.8,0.7,2.7L268.1,41.1z"/>
		<path d="M268.1,49.1v-4L252,73c0.3,0.7,0.7,1.4,1.1,2.1L268.1,49.1z"/>
		<path d="M290.7,50l17.7-30.6c-0.4-0.5-1-0.9-1.7-0.9h-0.1L290.7,46V50z"/>
		<polygon points="308.7,22.8 290.7,54 290.7,58 308.7,26.8 		"/>
		<path d="M267.2,18.8c-0.3-0.2-0.7-0.3-1-0.3H265L249.7,45v4L267.2,18.8z"/>
		<path d="M253.5,18.5h-1.8c-0.2,0-0.4,0-0.6,0.1l-1.4,2.4v4L253.5,18.5z"/>
		<polygon points="258.1,18.5 255.8,18.5 249.7,29 249.7,33 		"/>
		<path d="M268.1,29.1L249.7,61v0.7c0,0.1,0,0.2,0,0.2c0,0.9,0,1.8,0.1,2.9l18.3-31.6V29.1z"/>
		<polygon points="290.7,38 290.7,42 304.3,18.5 302,18.5 		"/>
		<polygon points="262.7,18.5 260.4,18.5 249.7,37 249.7,41 		"/>
		<polygon points="268.1,25.1 268.1,21.1 249.7,53 249.7,57 		"/>
		<path d="M278.7,70.7c-0.8,0-1.5-0.1-2.2-0.2L268,85.3c0.7,0.2,1.3,0.3,2,0.5L278.7,70.7z"/>
		<path d="M308.7,42.8v-4l-27.6,47.8c0.8,0,1.6,0,2.4-0.1L308.7,42.8z"/>
		<path d="M308.7,50.8v-4l-22.8,39.5c0.9-0.1,1.7-0.2,2.5-0.4L308.7,50.8z"/>
		<polygon points="290.7,30 290.7,34 299.7,18.5 297.4,18.5 		"/>
		<path d="M308.7,34.8v-4l-18,31.2c-0.2,2.5-1.4,5.1-3.9,6.8l-10.2,17.7c0.7,0,1.5,0.1,2.3,0.1L308.7,34.8z"/>
		<path d="M308.2,67.7c0.3-1.7,0.5-3.4,0.5-4.9l-11.8,20.4c1.4-0.7,2.6-1.5,3.6-2.3L308.2,67.7z"/>
		<path d="M308.7,58.8v-4L291,85.4c1-0.2,1.9-0.5,2.8-0.8L308.7,58.8z"/>
		<path d="M283.6,70.2c-0.8,0.2-1.6,0.4-2.6,0.5l-8.9,15.4c0.7,0.1,1.4,0.2,2.2,0.3L283.6,70.2z"/>
		<polygon points="290.7,22 290.7,26 295,18.5 292.7,18.5 		"/>
		<path d="M268.6,64.3c-0.3-0.9-0.4-1.9-0.4-2.9v-0.3L257.2,80c0.5,0.4,1,0.8,1.6,1.2L268.6,64.3z"/>
		<path d="M271,68.1c-0.5-0.5-1-1-1.4-1.6l-9.1,15.7c0.6,0.3,1.1,0.7,1.8,1L271,68.1z"/>
		<path d="M274.5,70.1c-0.7-0.2-1.3-0.5-1.9-0.8L264.1,84c0.6,0.2,1.3,0.5,1.9,0.7L274.5,70.1z"/>
	</g>
	<g>
		<polygon points="138,18.5 135.7,18.5 126.6,34.2 128.9,34.2 		"/>
		<polygon points="142.6,18.5 140.3,18.5 131.3,34.2 133.6,34.2 		"/>
		<polygon points="156.5,18.5 154.2,18.5 141.8,39.9 141.8,43.9 		"/>
		<polygon points="128.8,18.5 126.5,18.5 123.4,23.7 123.4,27.7 		"/>
		<polygon points="147.2,18.5 144.9,18.5 135.9,34.2 138.2,34.2 		"/>
		<path d="M159,50.1l-17.2,29.8v3.7c0,0.1,0,0.2,0,0.3L159,54.1V50.1z"/>
		<path d="M159,58.1l-15.8,27.4c0.2,0.1,0.4,0.1,0.6,0.1h1.6L159,62.1V58.1z"/>
		<path d="M131.1,18.5l-7.7,13.3v0.4c0,0.8,0.4,1.4,1.1,1.8l8.9-15.5H131.1z"/>
		<path d="M151.9,18.5h-2.3l-9.1,15.7h0.8c0.3,0,0.5,0.2,0.5,0.5v1.2L151.9,18.5z"/>
		<path d="M165.7,34.5l9.2-15.9c-0.2-0.1-0.4-0.1-0.7-0.1h-1.6l-9.2,16H165.7z"/>
		<polygon points="159,70.1 159,66.1 147.8,85.6 150.1,85.6 		"/>
		<polygon points="159,46.1 159,42.1 141.8,71.9 141.8,75.9 		"/>
		<polygon points="159,78.1 159,74.1 152.4,85.6 154.7,85.6 		"/>
		<path d="M172.6,34.5h1.6c0.3,0,0.6-0.1,0.9-0.2l1.1-2v-4L172.6,34.5z"/>
		<path d="M159,83.6v-1.5l-2,3.5h0C158.1,85.6,159,84.7,159,83.6z"/>
		<polygon points="165.7,18.5 163.4,18.5 141.8,55.9 141.8,59.9 		"/>
		<path d="M159,38.1V35c0-0.3,0.2-0.5,0.5-0.5h1.6l9.2-16H168l-26.2,45.4v4L159,38.1z"/>
		<path d="M170.3,34.5l5.9-10.2v-3.8c0,0,0-0.1,0-0.1L168,34.5H170.3z"/>
		<polygon points="161.1,18.5 158.8,18.5 141.8,47.9 141.8,51.9 		"/>
	</g>
	<g>
		<polygon points="211.9,18.5 209.6,18.5 185.3,60.5 185.3,64.5 		"/>
		<polygon points="202.7,18.5 200.4,18.5 185.3,44.5 185.3,48.5 		"/>
		<polygon points="198.1,18.5 195.7,18.5 185.3,36.5 185.3,40.5 		"/>
		<path d="M209.7,58.4h2.3l20.8-36c-0.5-0.4-1.1-0.8-1.6-1.2L209.7,58.4z"/>
		<path d="M214.3,58.4h2.3l19-32.8c-0.4-0.6-0.8-1.2-1.3-1.7L214.3,58.4z"/>
		<path d="M236.7,27.6l-18.1,31.3c0.5,0.3,1.1,0.7,1.5,1.4l17.4-30.1C237.3,29.2,237,28.4,236.7,27.6z"/>
		<polygon points="207.3,18.5 205,18.5 185.3,52.5 185.3,56.5 		"/>
		<path d="M208.4,44.5l-22.9,39.7c0.3,0.6,0.9,1.1,1.6,1.1l23.6-40.9H208.4z"/>
		<path d="M230.1,50.6c0,0,0.1,0,0.3-0.1l7.3-12.7c0.1-1.1,0.2-2.3,0.2-3.6c0-0.2,0-0.5,0-0.7l-16.8,29.1c0.1,0.4,0.1,0.8,0.1,1.3
			c0,3.7-2.6,5-3.5,5.4c-0.2,0.1-0.3,0.1-0.5,0.1l-9.2,16c0.8,0,1.5,0,2.3,0l20.1-34.7C230.2,50.6,230.1,50.6,230.1,50.6z"/>
		<path d="M238,57.3l-16.2,28c0.1,0,0.2,0,0.3,0c0.6,0,1.3,0,2,0l14.7-25.5C238.6,58.9,238.3,58.1,238,57.3z"/>
		<polygon points="193.4,18.5 191.1,18.5 185.3,28.5 185.3,32.5 		"/>
		<path d="M207.3,58.4l8-13.9c-0.1,0-0.2,0-0.3,0h-2l-8,13.9H207.3z"/>
		<path d="M188.8,18.5h-1.5c-0.3,0-0.7,0.1-0.9,0.2l-1,1.8v4L188.8,18.5z"/>
		<path d="M234.1,52.1c-0.6-0.4-1.2-0.8-1.7-1l-19.8,34.2c0.8,0,1.6,0,2.3,0L234.1,52.1z"/>
		<path d="M214.9,69.4h-2.3l-9.2,16c0.8,0,1.5,0,2.3,0L214.9,69.4z"/>
		<path d="M210.2,69.4h-2.3l-9.2,16c0.8,0,1.5,0,2.3,0L210.2,69.4z"/>
		<path d="M205.6,69.4h-2c-0.1,0-0.2,0-0.3-0.1l-9.3,16.1c0.7,0,1.5,0,2.3,0L205.6,69.4z"/>
		<path d="M236.9,55.2c-0.4-0.7-0.9-1.3-1.3-1.8l-18.4,31.9c0.8,0,1.6,0,2.3,0L236.9,55.2z"/>
		<path d="M238.7,76.1c0.5-1.6,0.8-3.5,1-5.7l-7.9,13.7c1.3-0.6,2.6-1.3,3.7-2.5L238.7,76.1z"/>
		<path d="M239.7,66.4c-0.1-1.3-0.2-2.4-0.3-3.5l-12.9,22.4c0.8-0.1,1.7-0.2,2.5-0.3L239.7,66.4z"/>
		<polygon points="209.5,34.7 211.8,34.7 221.1,18.5 218.8,18.5 		"/>
		<polygon points="204.9,34.7 207.2,34.7 216.5,18.5 214.2,18.5 		"/>
		<path d="M217.8,36.2c0.5,0.6,0.8,1.3,1,2.3l10.5-18.2c-0.6-0.3-1.3-0.5-1.9-0.8L217.8,36.2z"/>
		<path d="M214.1,34.7h1c0.2,0,0.5,0,0.7,0.1c0.1,0,0.3,0.1,0.4,0.2l9.2-16c-0.7-0.2-1.4-0.3-2.1-0.4L214.1,34.7z"/>
		<path d="M203.1,65.7v-4l-13.7,23.7c0.7,0,1.4,0,2.3,0L203.1,65.7z"/>
		<polygon points="206.1,44.5 203.8,44.5 185.3,76.5 185.3,80.5 		"/>
		<polygon points="202.7,42.4 202.7,38.4 185.3,68.5 185.3,72.5 		"/>
	</g>
	<g>
		<path d="M35.8,19.5c-0.3-0.6-0.9-1.1-1.7-1.1L22.9,37.9l0.9,2.5L35.8,19.5z"/>
		<polygon points="37.6,24.4 36.7,21.9 24.7,42.8 25.5,45.2 		"/>
		<polygon points="39.4,29.3 38.5,26.8 26.4,47.7 27.3,50.2 		"/>
		<polygon points="42.9,39.1 42.1,36.7 30,57.5 30.9,60 		"/>
		<polygon points="46.5,48.9 45.6,46.5 33.6,67.4 34.5,69.8 		"/>
		<polygon points="64.2,18.4 61.9,18.4 57.8,25.5 54.3,35.4 		"/>
		<polygon points="44.7,44 43.8,41.6 31.8,62.4 32.7,64.9 		"/>
		<polygon points="27.2,18.4 24.9,18.4 19.3,28 20.2,30.5 		"/>
		<path d="M117.3,18.4L79.4,84l0.1,0.2c0.2,0.6,0.7,1.1,1.4,1.3l38-65.9C118.6,19,118,18.5,117.3,18.4z"/>
		<path d="M100.8,71l-8.4,14.5l1.8,0c0.2,0,0.4,0,0.6-0.1l2.1-3.6L100.8,71z"/>
		<path d="M75.9,19.7c-0.1-0.3-0.3-0.5-0.5-0.8L38.9,82.1l0.7,2c0,0.1,0.1,0.2,0.2,0.3l36.6-63.3L75.9,19.7z"/>
		<polygon points="31.8,18.4 29.5,18.4 21.1,33 22,35.4 		"/>
		<path d="M68.8,18.4h-1h-1.3l-15.6,27L48.6,52c-0.2,0.4-0.8,0.5-0.9,0l-0.2-0.6L35.3,72.3l0.9,2.5L68.8,18.4z"/>
		<polygon points="22.6,18.4 20.3,18.4 17.5,23.1 18.4,25.6 		"/>
		<path d="M16.7,20.6l1.2-2.1C17.1,18.9,16.6,19.7,16.7,20.6z"/>
		<polygon points="41.2,34.2 40.3,31.7 28.2,52.6 29.1,55.1 		"/>
		<polygon points="110.4,18.4 108,18.4 75.9,74.1 76.7,76.6 		"/>
		<polygon points="86.8,51.2 85.9,48.7 74.1,69.1 75,71.6 		"/>
		<path d="M99.7,19.7l-1.1,2.9l2.4-4.1C100.5,18.6,100,19.1,99.7,19.7z"/>
		<polygon points="104.6,60.3 108.5,49.5 87.7,85.6 90,85.5 		"/>
		<polygon points="90.9,44.1 105.7,18.4 103.4,18.4 94.8,33.3 		"/>
		<polygon points="115,18.4 112.7,18.4 77.6,79.1 78.5,81.6 		"/>
		<polygon points="112.4,38.8 116.3,28.1 83.1,85.6 85.4,85.6 		"/>
		<polygon points="85,46.2 84.2,43.7 72.4,64.1 73.3,66.6 		"/>
		<path d="M66.8,53.8l0.6-1.6c0.1-0.3,0.3-0.3,0.6-0.3l12-20.7L79,28.7L46.2,85.5l2.3,0L66.8,53.8z"/>
		<polygon points="81.6,36.2 80.7,33.7 68.9,54.1 69.8,56.6 		"/>
		<polygon points="78.1,26.2 77.3,23.7 41.6,85.5 43.9,85.5 		"/>
		<path d="M56.2,84.3l0.1-0.3l-0.6,1C55.9,84.8,56.1,84.6,56.2,84.3z"/>
		<polygon points="82.4,38.7 70.7,59.1 71.5,61.6 83.3,41.2 		"/>
		<polygon points="59.8,73.9 63.3,63.9 50.8,85.6 53,85.6 		"/>
		<polygon points="73.4,18.4 71.1,18.4 37.1,77.2 38,79.7 		"/>
	</g>
</g>
<g id="Logo">
	<g id="WTBU">
		<path id="path4709_1_" class="st0" d="M254.7,15.9v41.2c0,0.1,0,0.2,0,0.2c0,8.7,3.6,24.6,29.8,24.8c26.5,0.2,29.2-16.5,29.2-24.8
			c0-0.1,0-0.1,0-0.2V15.9c0-1.1-0.9-2-2-2h-14c-1.1,0-2,0.9-2,2v41c0,0.2,0-0.2,0,0c0,4.3-3.2,9.3-11.2,9.3c-8,0-11.3-4.2-11.4-9.3
			c0-0.2,0,0.2,0,0v-41c0-1.1-0.9-2-2-2h-14.4C255.6,13.9,254.7,14.8,254.7,15.9z"/>
		<path id="path4713_1_" class="st1" d="M190.3,15.9v62.9c0,1.1,0.9,2,2,2c0,0,26.1-0.1,34.8,0c6.2,0.1,17.6,0.4,17.6-17.2
			c0-17.6-9.6-17.6-9.6-17.6c0,0,7.8-2.9,7.8-16.4c0-12.7-11.4-15.7-16.4-15.7c-0.1,0-0.2,0-0.3,0l-33.9,0
			C191.2,13.9,190.3,14.8,190.3,15.9z M208.2,30.1h11.9c0.2,0,0.5,0,0.7,0.1c0.9,0.3,3.1,1.5,3.1,4.8s-2.2,4.4-3.1,4.8
			c-0.2,0.1-0.5,0.1-0.7,0.1h-11.9c-0.3,0-0.5-0.2-0.5-0.5v-8.8C207.7,30.3,207.9,30.1,208.2,30.1z M208.6,53.8H222
			c0.2,0,0.5,0,0.7,0.1c1,0.4,3.5,1.7,3.5,5.4s-2.6,5-3.5,5.4c-0.2,0.1-0.4,0.1-0.7,0.1h-13.4c-0.3,0-0.5-0.2-0.5-0.5v-10
			C208.1,54,208.3,53.8,208.6,53.8z"/>
		<path id="path4707_1_" class="st0" d="M128.4,15.9v11.7c0,1.1,0.9,2,2,2h15.9c0.3,0,0.5,0.2,0.5,0.5V79c0,1.1,0.9,2,2,2H162
			c1.1,0,2-0.9,2-2V30.4c0-0.3,0.2-0.5,0.5-0.5h14.7c1.1,0,2-0.9,2-2v-12c0-1.1-0.9-2-2-2h-48.8C129.3,13.9,128.4,14.8,128.4,15.9z"
			/>
		<path class="st0" d="M72.8,13.8l6.2,0c0.9,0,1.6,0.5,1.9,1.3L92,47.5c0.2,0.4,0.8,0.5,0.9,0l11.7-32.4c0.3-0.8,1-1.3,1.9-1.3H122
			c1.4,0,2.3,1.4,1.9,2.7L101,79.6c-0.3,0.8-1,1.3-1.9,1.3l-12.8,0.2c-0.9,0-1.6-0.5-1.9-1.3L73.3,47.7c-0.2-0.4-0.8-0.4-0.9,0
			L61.2,79.7c-0.3,0.8-1.1,1.4-1.9,1.3l-12.8-0.2c-0.8,0-1.6-0.5-1.9-1.3L21.8,16.5c-0.5-1.3,0.5-2.7,1.9-2.7H39
			c0.8,0,1.6,0.5,1.9,1.3l11.7,32.4c0.2,0.4,0.8,0.4,0.9,0l11.2-32.3c0.3-0.8,1-1.3,1.9-1.3H72.8z"/>
	</g>
</g>
</svg>
